<svg data-v-1084b650="" xmlns="http://www.w3.org/2000/svg" viewBox="0 0 300 300"><!----> <!----> <rect data-v-1084b650="" fill="#ffffff" x="0" y="0" width="300px" height="300px" class="logo-background-square"></rect> <!----> <linearGradient data-v-1084b650="" gradientTransform="rotate(25)" id="1c3b77cc-ee70-8b23-840b-92192c2e7c24" x1="0%" y1="0%" x2="100%" y2="0%"><stop data-v-1084b650="" offset="0%" style="stop-color: rgb(13, 124, 233); stop-opacity: 1;"></stop> <stop data-v-1084b650="" offset="100%" style="stop-color: rgb(21, 207, 241); stop-opacity: 1;"></stop></linearGradient> <g data-v-1084b650="" id="7068ac9a-c89d-fe59-f43d-9a8b74cd369e" fill="url(#1c3b77cc-ee70-8b23-840b-92192c2e7c24)" stroke="none" transform="matrix(0.6999999999999997,0,0,0.6999999999999997,45.140702819824256,39.65550384521488)"><svg xmlns="http://www.w3.org/2000/svg" viewBox="-346 256 100 100"><path d="M-275.103 338.151c-9.254 9.213-12.579 17.849-12.579 17.849h41.548v-91.382c-1.09-.149-2.194-.253-3.325-.253-11.033 0-21.206 8.286-23.319 17.41-.469 2.028-1.001 7.327-1.001 7.327l-6.199 12.791c-.101.227-.15.491-.15.76 0 1.081.873 1.959 1.957 1.959h4.393v6.794c0 5.301 4.286 9.594 9.583 9.594h3.809v6.692c-4.505 2.306-9.954 5.717-14.717 10.459z"></path><circle cx="-309.82" cy="290.819" r="3.131"></circle><path d="M-327.009 305.556c-1.5 0-3.001-.471-4.365-1.389-1.865-1.257-3.256-3.217-3.916-5.521-.849-2.962-.702-5.583.426-7.579.971-1.719 2.584-2.892 4.794-3.488 3.441-.929 7 1.336 8.096 5.157a1.88 1.88 0 0 1-3.612 1.036c-.516-1.797-2.093-2.951-3.506-2.565-1.219.329-2.037.887-2.5 1.708-.612 1.084-.642 2.751-.085 4.696.417 1.455 1.27 2.677 2.402 3.438 1.031.694 2.171.914 3.21.615a1.88 1.88 0 0 1 1.035 3.613 7.198 7.198 0 0 1-1.979.279z"></path><path d="M-286.537 296.012c0-19.257-13.337-34.923-29.731-34.923S-346 276.755-346 296.012c0 18.518 12.336 33.708 27.861 34.847v17.207c-6.683.752-11.852 3.958-12.611 7.935h31.248c-.759-3.977-5.928-7.183-12.611-7.935v-17.479c14.433-2.383 25.576-16.977 25.576-34.575zm-52.602 0c0-14.858 9.461-27.048 21.378-27.996 6.755 2.446 12.184 8.098 13.59 14.168.417 1.799.884 6.5.884 6.5l6.406 11.348c.089.201.134.436.134.673 0 .959-.773 1.739-1.737 1.739h-4.803v6.026c0 4.704-3.798 7.895-8.497 7.895h-3.381v7.673c-.366.021-.733.035-1.103.035-12.611 0-22.871-12.588-22.871-28.061z"></path></svg></g></svg>